<svg preserveAspectRatio="none" overflow="visible" style="display: block;" width="20" height="20" viewBox="0 0 20 20" fill="none" xmlns="http://www.w3.org/2000/svg">
<g id="unstable-joints">
<path id="Vector" d="M3.60156 15.7988C3.93272 15.7988 4.20117 16.0673 4.20117 16.3984C4.201 16.7294 3.93261 16.998 3.60156 16.998C3.27051 16.998 3.00213 16.7294 3.00195 16.3984C3.00195 16.0673 3.27041 15.7988 3.60156 15.7988ZM10.6445 7.28418C10.7416 7.79767 10.9908 8.27012 11.3604 8.63965C11.7299 9.00918 12.2023 9.2584 12.7158 9.35547L16.123 10L12.7158 10.6445C12.2023 10.7416 11.7299 10.9908 11.3604 11.3604C10.9908 11.7299 10.7416 12.2023 10.6445 12.7158L10 16.123L9.35547 12.7158C9.2584 12.2023 9.00918 11.7299 8.63965 11.3604C8.27012 10.9908 7.79767 10.7416 7.28418 10.6445L3.87598 10L7.28418 9.35547C7.79767 9.2584 8.27012 9.00918 8.63965 8.63965C9.00918 8.27012 9.2584 7.79767 9.35547 7.28418L10 3.87598L10.6445 7.28418ZM17.1611 9.80371H17.1592C17.1605 9.80344 17.1618 9.80298 17.1631 9.80273L17.1611 9.80371Z" stroke="#5C5C6E" stroke-width="2" stroke-linecap="round"/>
</g>
</svg>
