<svg preserveAspectRatio="none" overflow="visible" style="display: block;" width="16" height="16" viewBox="0 0 16 16" fill="none" xmlns="http://www.w3.org/2000/svg">
<g id="balloon">
<path id="Vector" d="M8 10.6669V11.3336C8 11.6873 8.14048 12.0264 8.39052 12.2765C8.64057 12.5266 8.97971 12.667 9.33333 12.667H10C10.3536 12.667 10.6928 12.8075 10.9428 13.0576C11.1929 13.3077 11.3333 13.6468 11.3333 14.0005V14.6672M8 10.6669C9.66667 10.6669 12 8 12 5.33312C12 4.27217 11.5786 3.25467 10.8284 2.50447C10.0783 1.75426 9.06087 1.3328 8 1.3328C6.93913 1.3328 5.92172 1.75426 5.17157 2.50447C4.42143 3.25467 4 4.27217 4 5.33312C4 8 6.33333 10.6669 8 10.6669ZM8 3.99968C8.35362 3.99968 8.69276 4.14017 8.94281 4.39024C9.19286 4.6403 9.33333 4.97947 9.33333 5.33312" stroke="#5C5C6E" stroke-width="2" stroke-linecap="round"/>
</g>
</svg>
