<svg preserveAspectRatio="none" overflow="visible" style="display: block;" width="16.25" height="16.4305" viewBox="0 0 16.25 16.4305" fill="none" xmlns="http://www.w3.org/2000/svg">
<path id="Vector" d="M5.75 13.0555V2.76379L15.25 1.18046V11.4721M5.75 13.0555C5.75 14.3671 4.68668 15.4305 3.375 15.4305C2.06332 15.4305 1 14.3671 1 13.0555C1 11.7438 2.06332 10.6805 3.375 10.6805C4.68668 10.6805 5.75 11.7438 5.75 13.0555ZM15.25 11.4721C15.25 12.7838 14.1867 13.8471 12.875 13.8471C11.5633 13.8471 10.5 12.7838 10.5 11.4721C10.5 10.1605 11.5633 9.09713 12.875 9.09713C14.1867 9.09713 15.25 10.1605 15.25 11.4721Z" stroke="#4AB5A0" stroke-width="2" stroke-linecap="round"/>
</svg>
